<svg width="120" height="45" fill="none" xmlns="http://www.w3.org/2000/svg">
  <path fill-rule="evenodd" clip-rule="evenodd" d="M74.524 32.31c-6.98 5.146-17.099 7.891-25.81 7.891-12.216 0-23.212-4.518-31.532-12.032-.653-.591-.068-1.396.716-.936 8.979 5.224 20.08 8.366 31.547 8.366 7.734 0 16.242-1.6 24.065-4.92 1.181-.502 2.17.774 1.014 1.631" fill="#A4A4A4"/>
  <path fill-rule="evenodd" clip-rule="evenodd" d="M77.427 28.99c-.89-1.14-5.899-.539-8.147-.272-.685.083-.79-.513-.173-.942 3.99-2.808 10.537-1.997 11.3-1.056.764.947-.198 7.51-3.948 10.641-.575.481-1.124.225-.868-.413.842-2.102 2.73-6.813 1.836-7.958" fill="#A4A4A4"/>
  <path fill-rule="evenodd" clip-rule="evenodd" d="M69.437 7.953v-2.73c0-.413.313-.69.69-.69h12.22c.392 0 .706.283.706.69v2.338c-.005.392-.334.904-.92 1.715L75.8 18.317c2.353-.058 4.837.293 6.97 1.495.482.272.613.67.65 1.062v2.913c0 .397-.44.862-.9.622-3.76-1.971-8.754-2.186-12.91.02-.424.23-.869-.23-.869-.627v-2.766c0-.444.005-1.203.45-1.877l7.336-10.521h-6.384c-.393 0-.706-.277-.706-.685M24.859 24.984h-3.718a.702.702 0 01-.664-.632V5.27c0-.382.319-.685.716-.685h3.467a.7.7 0 01.675.638v2.494h.068c.904-2.41 2.604-3.535 4.894-3.535 2.327 0 3.78 1.124 4.827 3.535.899-2.41 2.944-3.535 5.135-3.535 1.558 0 3.263.643 4.303 2.087 1.177 1.605.936 3.937.936 5.982l-.005 12.042c0 .382-.32.69-.717.69h-3.712c-.371-.026-.67-.324-.67-.69V14.181c0-.805.074-2.813-.104-3.577-.277-1.28-1.109-1.642-2.186-1.642-.9 0-1.84.602-2.222 1.564-.382.962-.345 2.573-.345 3.655v10.113c0 .382-.32.69-.717.69h-3.712a.703.703 0 01-.67-.69l-.005-10.113c0-2.128.35-5.26-2.29-5.26-2.672 0-2.568 3.053-2.568 5.26v10.113c0 .382-.319.69-.716.69M93.574 4.183c5.517 0 8.502 4.738 8.502 10.761 0 5.82-3.3 10.438-8.502 10.438-5.417 0-8.367-4.738-8.367-10.641 0-5.94 2.986-10.558 8.367-10.558zm.031 3.896c-2.74 0-2.912 3.733-2.912 6.06 0 2.332-.037 7.31 2.881 7.31 2.881 0 3.017-4.016 3.017-6.463 0-1.61-.068-3.535-.554-5.061-.418-1.329-1.25-1.846-2.432-1.846m15.625 16.905h-3.702c-.372-.026-.67-.324-.67-.69l-.005-19.086c.031-.35.34-.622.716-.622h3.446a.71.71 0 01.664.533v2.918h.068c1.041-2.61 2.5-3.854 5.067-3.854 1.668 0 3.295.601 4.34 2.249.973 1.526.973 4.094.973 5.94v12.011c-.042.335-.35.601-.716.601h-3.729c-.339-.026-.622-.277-.658-.601V14.019c0-2.086.24-5.14-2.327-5.14-.905 0-1.736.606-2.15 1.527-.522 1.166-.59 2.327-.59 3.613v10.275a.716.716 0 01-.727.69M59.695 15.87c0 1.448.037 2.656-.695 3.943-.591 1.046-1.532 1.689-2.573 1.689-1.428 0-2.264-1.088-2.264-2.693 0-3.17 2.84-3.744 5.532-3.744v.805zm3.75 9.062a.776.776 0 01-.88.089c-1.233-1.025-1.458-1.5-2.133-2.479-2.039 2.081-3.487 2.704-6.128 2.704-3.132 0-5.564-1.93-5.564-5.794 0-3.017 1.632-5.072 3.964-6.076 2.018-.89 4.837-1.046 6.991-1.292v-.48c0-.885.068-1.93-.455-2.694-.45-.685-1.318-.967-2.086-.967-1.417 0-2.678.727-2.986 2.232-.063.335-.309.665-.648.68l-3.603-.387c-.303-.068-.643-.313-.555-.779C50.19 5.318 54.142 4 57.677 4c1.809 0 4.172.481 5.6 1.851 1.81 1.69 1.637 3.943 1.637 6.395v5.794c0 1.741.721 2.505 1.401 3.446.235.335.288.737-.016.988a157.49 157.49 0 00-2.85 2.468l-.005-.01M10.955 15.87c0 1.448.037 2.656-.696 3.943-.59 1.046-1.526 1.689-2.572 1.689-1.428 0-2.26-1.088-2.26-2.693 0-3.17 2.84-3.744 5.528-3.744v.805zm3.75 9.062a.776.776 0 01-.88.089c-1.233-1.025-1.453-1.5-2.133-2.479-2.04 2.081-3.482 2.704-6.128 2.704-3.127 0-5.564-1.93-5.564-5.794 0-3.017 1.637-5.072 3.964-6.076 2.018-.89 4.836-1.046 6.99-1.292v-.48c0-.885.069-1.93-.449-2.694-.455-.685-1.323-.967-2.086-.967-1.417 0-2.683.727-2.991 2.232-.063.335-.309.665-.643.68l-3.608-.387C.873 10.4.539 10.155.622 9.69 1.454 5.318 5.402 4 8.936 4c1.81 0 4.173.481 5.6 1.851 1.81 1.69 1.638 3.943 1.638 6.395v5.794c0 1.741.721 2.505 1.4 3.446.241.335.294.737-.01.988a157.49 157.49 0 00-2.85 2.468l-.01-.01" fill="#000"/>
</svg>
