<svg width="122" height="45" fill="none" xmlns="http://www.w3.org/2000/svg">
  <path d="M65.83 27.38c0 3.763-4.682 3.54-4.682 3.54h-4.683v-6.8h4.683c4.819-.032 4.682 3.26 4.682 3.26zm-9.365-13.63h3.568c3.706.197 3.566 2.955 3.566 2.955 0 3.428-4.097 3.484-4.097 3.484h-3.037v-6.438zm8.5 7.776s3.204-1.365 3.176-4.988c0 0 .487-5.937-7.379-6.661h-8.728v24.889H62.04s8.36.025 8.36-7.023c0 0 .197-4.796-5.435-6.217zM42.374 5h36.749v34.629H42.376V5zm-18.92 22.38c0 3.763-4.683 3.54-4.683 3.54h-4.683v-6.8h4.683c4.82-.032 4.682 3.26 4.682 3.26zm-9.366-13.63h3.569c3.705.197 3.565 2.955 3.565 2.955 0 3.428-4.097 3.484-4.097 3.484h-3.037v-6.438zm8.5 7.776s3.205-1.365 3.176-4.988c0 0 .488-5.937-7.378-6.661h-8.73v24.889h10.006s8.36.025 8.36-7.023c0 0 .197-4.796-5.434-6.217zM0 5h36.748v34.629H0V5zm114.003 6.661v4.598s-4.488-2.758-9.448-2.813c0 0-9.254-.182-9.67 8.87 0 0-.335 8.324 9.558 8.798 0 0 4.151.5 9.783-3.09v4.761s-7.554 4.489-16.305 1.032c0 0-7.356-2.686-7.637-11.501 0 0-.306-9.066 9.505-12.076 0 0 2.62-1.003 7.328-.557 0 0 2.814.278 6.886 1.978zM84.752 39.63h36.747V5H84.752v34.629z" fill="#000"/>
</svg>
