<svg width="155" height="45" fill="none" xmlns="http://www.w3.org/2000/svg">
  <path fill-rule="evenodd" clip-rule="evenodd" d="M18.515 18.385c1.828 1.837 3.323 4.846 2.467 6.634C18.694 29.799 1.617 38.182.166 36.732c-1.45-1.451 6.94-18.534 11.72-20.823 1.787-.856 4.797.64 6.634 2.469l-.005.007z" fill="#393939"/>
  <path fill-rule="evenodd" clip-rule="evenodd" d="M27.561 16.367c-.297-1.1-1.055-2.21-2.186-2.342-2.075-.242-5.346 3.427-5.112 4.298.233.87 4.854 2.405 6.58 1.164.89-.64 1.015-2.02.722-3.121h-.004zM21.14 6.203c1.541.418 3.098 1.48 3.282 3.066.339 2.909-4.804 7.495-6.025 7.167-1.221-.327-3.373-6.805-1.633-9.225.896-1.247 2.833-1.423 4.376-1.013v.005zm45.95 17.221l-1.527-.232c-1.456-.215-2.298-.686-2.298-1.544 0-.985 1.097-1.596 2.718-1.596 1.147 0 2.08.43 2.974.885l.177.09a1.456 1.456 0 001.932-.594l.126-.225a1.48 1.48 0 00.118-1.164 1.473 1.473 0 00-.753-.888c-1.302-.652-2.714-1.237-4.574-1.237-3.887 0-6.391 1.877-6.391 4.898 0 2.48 1.782 4.035 5.155 4.496l1.54.2c1.629.229 2.42.71 2.42 1.474 0 .705-.38 1.642-2.903 1.642-1.39 0-2.802-.353-3.948-1.08a1.424 1.424 0 00-.763-.22c-.503 0-.981.266-1.247.697l-.085.138a1.505 1.505 0 00-.176 1.162c.1.392.35.716.7.913 1.998 1.124 4.304 1.522 5.52 1.522 4.051 0 6.56-1.776 6.56-4.9 0-2.502-1.775-3.935-5.275-4.438zm47.12 5.458a1.55 1.55 0 00-1.99-.27c-.824.524-1.728.8-2.614.8-2.435 0-4.202-1.922-4.202-4.572 0-2.649 1.767-4.572 4.202-4.572a4.48 4.48 0 012.557.777c.608.404 1.483.3 1.983-.233l.129-.138c.343-.366.506-.862.448-1.36a1.663 1.663 0 00-.731-1.197c-1.198-.794-2.682-1.213-4.293-1.213-4.673 0-7.937 3.264-7.937 7.936 0 4.674 3.264 7.937 7.937 7.937 1.617 0 3.11-.428 4.316-1.238a1.68 1.68 0 00.729-1.186 1.694 1.694 0 00-.42-1.343l-.114-.128zM38.58 11.534c-1.216 0-2.169.965-2.169 2.196 0 1.237.933 2.17 2.17 2.17 1.23 0 2.196-.953 2.196-2.17a2.173 2.173 0 00-2.197-2.196zm.657 5.498h-1.28c-.627 0-1.135.508-1.135 1.135v13.09c0 .626.509 1.135 1.136 1.135h1.279c.627 0 1.135-.509 1.135-1.136V18.167c0-.627-.508-1.135-1.135-1.135zm42.007 12.313c-1.436-.006-3.105-1.131-3.105-3.101V20.34h3.115c.627 0 1.136-.509 1.136-1.136v-1.036c0-.627-.509-1.136-1.136-1.136H78.14v-3.407c0-.627-.508-1.135-1.135-1.135h-1.35c-.628 0-1.136.508-1.136 1.135v12.407c0 3.572 2.71 6.73 6.463 6.73h.002a1.4 1.4 0 00.994-.413 1.4 1.4 0 00.413-.994v-.875c0-.63-.516-1.133-1.146-1.135zM50.238 16.904c-4.542 0-7.075 3.633-7.075 6.742v7.61c0 .627.508 1.136 1.135 1.136h1.294c.627 0 1.136-.509 1.136-1.136v-7.039c0-2.357 1.428-3.918 3.51-3.918 2.083 0 3.51 1.561 3.51 3.918v7.04c0 .626.509 1.135 1.136 1.135h1.294c.627 0 1.136-.509 1.136-1.136v-7.61c0-3.11-2.533-6.742-7.076-6.742zm93.435.157c-.492-.107-1.727-.157-2.366-.157l-.17.002c-3.517 0-6.764 2.867-6.764 6.82l-.001.01v7.52c0 .627.508 1.136 1.135 1.136h1.294c.627 0 1.136-.509 1.136-1.136v-7.4c0-2.152 1.536-3.555 3.418-3.555a6.14 6.14 0 011.077.116 1.546 1.546 0 001.807-1.165c.092-.383.16-.669.224-.93.064-.26.021-.556-.129-.795a1.035 1.035 0 00-.661-.466zm9.492 3.279c.627 0 1.135-.509 1.135-1.136v-1.036c0-.627-.508-1.136-1.135-1.136h-3.115v-3.407c0-.627-.509-1.135-1.136-1.135h-1.35c-.627 0-1.135.508-1.135 1.135v12.407c0 3.572 2.71 6.73 6.463 6.73h.001c.375 0 .728-.147.994-.413.267-.266.413-.62.413-.994v-.875c0-.63-.515-1.133-1.146-1.135-1.436-.006-3.104-1.131-3.104-3.101V20.34h3.115zm-24.699-2.218l-.006-.005c-1.197-.794-2.681-1.213-4.292-1.213l-.084.002-.083-.002c-1.612 0-3.096.42-4.293 1.213l-.006.005c-2.155 1.356-3.472 3.753-3.472 6.718 0 3.108 1.444 5.59 3.785 6.906a7.44 7.44 0 003.783 1.03c2.55.001 4.09-1.444 4.575-2.075v.544c0 .627.508 1.136 1.135 1.136h1.294c.627 0 1.136-.509 1.136-1.136V24.84c0-2.965-1.316-5.362-3.472-6.718zm-2.956 11.053a4.603 4.603 0 01-1.349.236l-.077.002-.077-.002a4.617 4.617 0 01-1.349-.236c-1.674-.591-2.785-2.234-2.785-4.334 0-2.48 1.549-4.324 3.745-4.55l.034-.003a4.728 4.728 0 01.382-.019h.101a4.445 4.445 0 01.381.02l.035.002c2.195.226 3.744 2.07 3.744 4.55 0 2.1-1.111 3.743-2.785 4.334zM96.162 18.122l-.006-.005c-1.197-.794-2.681-1.213-4.293-1.213l-.083.002-.083-.002c-1.612 0-3.096.42-4.293 1.213l-.006.005c-2.156 1.356-3.472 3.753-3.472 6.718 0 3.108 1.444 5.59 3.785 6.906a7.44 7.44 0 003.783 1.03c2.55.001 4.09-1.444 4.574-2.075v.544c0 .627.509 1.136 1.136 1.136h1.294c.627 0 1.136-.509 1.136-1.136V24.84c0-2.965-1.317-5.362-3.472-6.718zm-2.956 11.053a4.613 4.613 0 01-1.349.236l-.077.002-.077-.002-.093-.002a4.613 4.613 0 01-1.256-.234c-1.674-.591-2.785-2.234-2.785-4.335 0-2.48 1.549-4.323 3.744-4.549.012 0 .023-.002.035-.003a4.592 4.592 0 01.381-.019h.102a4.417 4.417 0 01.38.02l.036.002c2.195.226 3.744 2.07 3.744 4.55 0 2.1-1.111 3.743-2.785 4.334z" fill="#000"/>
</svg>
