<svg width="84" height="45" fill="none" xmlns="http://www.w3.org/2000/svg">
  <path fill-rule="evenodd" clip-rule="evenodd" d="M14.005 26.723c-.664 0-1.184.465-1.184 1.143 0 .68.523 1.141 1.184 1.141.662 0 1.185-.465 1.185-1.14 0-.679-.52-1.144-1.185-1.144zm0 1.957c-.474 0-.825-.346-.825-.814 0-.467.349-.816.825-.816.47 0 .825.354.825.816 0 .46-.357.814-.825.814zm11.527-5.955h-5.767l.656-10.023-3.745 10.023H11.32L19.818.07h5.698l-.658 10.161L28.674.07h5.355l-8.497 22.655zm.696 0L34.724.07h5.355l-8.496 22.656h-5.355z" fill="#000"/>
  <path fill-rule="evenodd" clip-rule="evenodd" d="M10.703 14.916C3.22 23.704-3.839 35.396 2.396 40.78c6.042 5.22 13.594 2.13 18.744.07s62.064-26.776 62.064-26.776c.55-.274.447-.617-.24-.446-.277.07-61.96 16.786-61.96 16.786-7.828 2.197-16.753-2.592-10.3-15.498z" fill="#000"/>
  <path fill-rule="evenodd" clip-rule="evenodd" d="M14.207 27.947c.166-.008.296-.094.296-.324 0-.297-.194-.371-.518-.371h-.465v1.23h.31v-.524h.053l.282.523h.357l-.315-.534zm-.2-.2h-.176v-.285h.149c.091 0 .196.01.196.13 0 .128-.06.155-.168.155zM67.838 0c-.665 0-1.186.465-1.186 1.143 0 .678.524 1.14 1.185 1.14s1.185-.465 1.185-1.14C69.02.465 68.5 0 67.836 0zm0 1.958c-.475 0-.826-.347-.826-.814 0-.468.349-.817.825-.817.47 0 .825.354.825.817a.806.806 0 01-.825.814z" fill="#000"/>
  <path fill-rule="evenodd" clip-rule="evenodd" d="M68.039 1.224c.166-.008.296-.094.296-.324 0-.297-.194-.371-.517-.371h-.466v1.229h.31v-.523h.053l.282.523h.357l-.315-.534zm-.2-.2h-.177V.74h.15c.09 0 .196.011.196.13 0 .128-.061.155-.169.155zm-3.531 2.822L65.747.069h-16.34l-5.61 6.797L46.387.07h-5.424l-8.428 22.656h5.355l3.598-9.474.247 9.474 16.431-.036 1.564-4.358h-6.247l2.053-5.492h5.148l1.585-4.222h-5.15l1.766-4.771h5.423zm-17.26 17.369l-.344-11.809 8.097-8.89-7.754 20.699z" fill="#000"/>
</svg>
