<svg width="121" height="45" fill="none" xmlns="http://www.w3.org/2000/svg">
  <path d="M18.052 4C8.082 4 0 12.059 0 22c0 9.942 8.082 18 18.052 18 9.97 0 18.052-8.058 18.052-18 0-9.94-8.082-18-18.052-18zm8.278 25.961a1.126 1.126 0 01-1.548.372c-4.238-2.581-9.573-3.166-15.857-1.734a1.126 1.126 0 01-1.347-.845 1.12 1.12 0 01.846-1.344c6.877-1.566 12.775-.892 17.533 2.008a1.12 1.12 0 01.373 1.543zm2.21-4.9a1.41 1.41 0 01-1.936.462c-4.852-2.974-12.249-3.836-17.988-2.098a1.41 1.41 0 01-1.757-.936 1.405 1.405 0 01.939-1.75c6.556-1.983 14.706-1.023 20.278 2.392a1.4 1.4 0 01.464 1.93zm.19-5.105c-5.819-3.445-15.418-3.762-20.972-2.081a1.683 1.683 0 11-.98-3.222c6.376-1.93 16.976-1.558 23.674 2.408a1.679 1.679 0 01.591 2.307 1.69 1.69 0 01-2.313.588zm20.383.66c-3.117-.74-3.671-1.26-3.671-2.354 0-1.032.974-1.727 2.425-1.727 1.405 0 2.798.528 4.26 1.614a.2.2 0 00.152.037.2.2 0 00.136-.083l1.522-2.139a.204.204 0 00-.039-.277c-1.74-1.391-3.697-2.067-5.986-2.067-3.365 0-5.717 2.013-5.717 4.895 0 3.09 2.029 4.184 5.534 5.028 2.981.685 3.486 1.26 3.486 2.285 0 1.137-1.018 1.844-2.656 1.844-1.82 0-3.305-.613-4.965-2.044a.212.212 0 00-.148-.05.202.202 0 00-.14.072l-1.708 2.024a.204.204 0 00.02.284c1.931 1.72 4.307 2.627 6.872 2.627 3.625 0 5.969-1.976 5.969-5.034.006-2.581-1.544-4.01-5.34-4.931l-.006-.003zm13.55-3.064c-1.571 0-2.86.617-3.925 1.882V18.01a.203.203 0 00-.203-.204h-2.792a.203.203 0 00-.202.204v15.82c0 .112.09.205.202.205h2.792a.204.204 0 00.203-.205v-4.993c1.064 1.189 2.354 1.771 3.925 1.771 2.92 0 5.878-2.242 5.878-6.527.005-4.287-2.953-6.53-5.876-6.53h-.002zm2.632 6.529c0 2.181-1.347 3.705-3.279 3.705-1.907 0-3.347-1.593-3.347-3.705 0-2.113 1.44-3.706 3.347-3.706 1.9 0 3.279 1.558 3.279 3.705zm10.823-6.53c-3.761 0-6.708 2.889-6.708 6.576 0 3.648 2.927 6.505 6.663 6.505 3.774 0 6.73-2.878 6.73-6.551 0-3.661-2.936-6.529-6.685-6.529zm0 10.257c-2 0-3.51-1.604-3.51-3.729 0-2.134 1.458-3.682 3.465-3.682 2.013 0 3.53 1.603 3.53 3.73 0 2.133-1.465 3.68-3.485 3.68zm14.717-10.002h-3.072v-3.13a.203.203 0 00-.203-.205h-2.79a.205.205 0 00-.205.204v3.131h-1.34a.203.203 0 00-.204.204v2.392c0 .112.091.204.203.204h1.34v6.19c0 2.499 1.249 3.767 3.713 3.767 1 0 1.83-.206 2.612-.649a.199.199 0 00.104-.176v-2.279a.203.203 0 00-.097-.172.198.198 0 00-.198-.008 3.532 3.532 0 01-1.639.393c-.894 0-1.295-.406-1.295-1.313v-5.752h3.072a.203.203 0 00.202-.204V18.01a.198.198 0 00-.2-.204h-.002zm10.7.012v-.384c0-1.132.435-1.636 1.41-1.636.582 0 1.05.115 1.573.29a.204.204 0 00.268-.195v-2.345a.201.201 0 00-.145-.195 7.667 7.667 0 00-2.319-.332c-2.576 0-3.94 1.447-3.94 4.184v.589H97.04a.205.205 0 00-.204.204v2.404c0 .112.092.204.204.204h1.341v9.544c0 .114.093.205.205.205h2.789c.115 0 .205-.09.205-.204v-9.545h2.606l3.993 9.544c-.453 1.002-.899 1.202-1.507 1.202-.492 0-1.011-.146-1.539-.436a.224.224 0 00-.162-.015.205.205 0 00-.121.11l-.946 2.07a.204.204 0 00.088.264c.988.533 1.878.76 2.979.76 2.061 0 3.202-.958 4.204-3.533l4.841-12.475a.197.197 0 00-.021-.19.2.2 0 00-.166-.088h-2.906a.205.205 0 00-.194.137l-2.977 8.476-3.259-8.482a.204.204 0 00-.19-.131h-4.768zm-6.204-.012H92.54a.205.205 0 00-.205.204v12.14c0 .114.093.205.205.205h2.791c.112 0 .205-.09.205-.204V18.01a.204.204 0 00-.205-.204zm-1.38-5.528a1.998 1.998 0 00-2.002 1.995 2 2 0 002.003 1.996c1.105 0 2-.893 2-1.996a1.998 1.998 0 00-2-1.995zM118.4 21.71a1.954 1.954 0 01-1.963-1.959c0-1.074.871-1.969 1.974-1.969 1.104 0 1.964.885 1.964 1.958 0 1.074-.871 1.97-1.975 1.97zm.011-3.733a1.753 1.753 0 00-1.767 1.774 1.74 1.74 0 001.756 1.763 1.753 1.753 0 001.768-1.774 1.74 1.74 0 00-1.757-1.763zm.436 1.964l.556.776h-.47l-.5-.712h-.429v.712h-.392V18.66h.918c.481 0 .795.244.795.656.002.337-.194.543-.476.624h-.002zm-.332-.927h-.511v.65h.511c.254 0 .407-.124.407-.325 0-.212-.153-.325-.407-.325z" fill="#000"/>
</svg>
