<svg width="145" height="45" fill="none" xmlns="http://www.w3.org/2000/svg">
  <path d="M14.311 43.21a1.175 1.175 0 01-.088-.072c-.51-.63-3.654-4.57-6.859-9.624-.961-1.61-1.585-2.866-1.465-3.19.313-.845 5.9-1.307 7.62-.542.524.233.51.54.51.72 0 .772-.038 2.847-.038 2.847a.777.777 0 101.554-.003l-.009-5.169h-.001c0-.448-.49-.56-.582-.578a900.93 900.93 0 00-4.68-.01c-4.32 0-5.286.176-6.02-.303-1.59-1.04-4.19-8.05-4.251-11.993-.087-5.563 3.21-10.38 7.851-12.766A14.292 14.292 0 0114.296 1c7.347 0 13.397 5.545 14.202 12.68 0 .005 0 .013.002.018.148 1.725-9.358 2.092-11.238 1.59-.288-.077-.362-.372-.362-.5l-.011-5.002a.779.779 0 00-1.556.003l.016 6.8a.58.58 0 00.471.563c1.07 0 3.57-.003 5.9-.003 3.147 0 4.47.365 5.35 1.035.584.446.81 1.3.613 2.41-1.765 9.873-12.95 22.106-13.37 22.616h-.002zm30.334-23.043c2.822 1.21 4.57 2.551 4.57 5.496 0 3.01-2.278 4.953-5.805 4.953-2.857 0-5.151-1.295-6.294-3.552l-.184-.364 3.36-1.947.22.36c.756 1.236 1.602 1.763 2.829 1.763 1.057 0 1.768-.468 1.768-1.166 0-.774-.515-1.063-2.104-1.76l-.808-.346c-2.156-.919-4.154-2.196-4.154-5.288 0-2.78 2.13-4.72 5.181-4.72 2.312 0 3.896.894 4.986 2.814l.202.356-3.255 2.092-.224-.401c-.545-.974-1.057-1.169-1.709-1.169-.68 0-1.12.376-1.12.958 0 .67.324.963 1.733 1.573l.808.348zm23.782.57l2.372-6.614h4.071l-6.033 16.766h-.904l-3.66-7.852c-.17-.36-.346-.807-.497-1.216a17.1 17.1 0 01-.505 1.217l-3.803 7.85h-.898l-6.13-16.765h4.349l2.398 6.613c.153.422.31.936.447 1.413.163-.492.359-1.024.564-1.452l3.149-6.713h.871l3.199 6.713c.203.428.4.96.562 1.453.138-.478.296-.992.448-1.414zm11.19 9.67V13.78h4.11v16.627h-4.11zm17.581-5.586v-3.716h7.63v7.452l-.158.13c-.872.716-3.187 1.929-6.321 1.929-5.289 0-8.98-3.504-8.98-8.522 0-4.924 3.562-8.499 8.47-8.499 2.7 0 4.678.761 6.048 2.327l.267.306-2.8 2.772-.305-.313c-.782-.807-1.592-1.306-3.21-1.306-2.514 0-4.27 1.938-4.27 4.713 0 2.891 1.875 4.76 4.78 4.76.963 0 1.966-.166 2.649-.431V24.82h-3.8zm20.823 0v-3.716h7.629v7.452l-.158.13c-.873.716-3.186 1.929-6.321 1.929-5.288 0-8.981-3.504-8.981-8.522 0-4.924 3.564-8.499 8.471-8.499 2.7 0 4.679.761 6.048 2.327l.268.306-2.8 2.772-.305-.313c-.782-.807-1.593-1.306-3.211-1.306-2.514 0-4.27 1.938-4.27 4.713 0 2.891 1.876 4.76 4.78 4.76.964 0 1.966-.166 2.649-.431V24.82h-3.799zm22.684-11.04H145l-5.895 11.063v5.563h-4.131v-5.326l-6.279-11.3h4.582l2.903 5.3c.312.577.638 1.34.884 1.958.235-.614.547-1.369.857-1.953l2.784-5.306z" fill="#000"/>
</svg>
