<svg width="84" height="45" fill="none" xmlns="http://www.w3.org/2000/svg">
  <path d="M11.396 32.425c3.99 0 7.076-3.086 7.076-7.652V7h4.318v28.798h-4.277v-2.674c-1.934 2.016-4.607 3.168-7.61 3.168C4.73 36.292 0 31.807 0 25.022V7.005h4.319v17.768c0 4.648 3.044 7.652 7.076 7.652M26 7h4.155v10.491a10.375 10.375 0 017.446-3.127c6.171 0 11.025 4.896 11.025 10.985 0 6.047-4.854 10.942-11.025 10.942a10.467 10.467 0 01-7.49-3.126v2.632h-4.117L26 7zm11.313 25.63c3.95 0 7.2-3.25 7.2-7.281 0-4.073-3.25-7.282-7.2-7.282-3.99 0-7.24 3.209-7.24 7.282 0 4.031 3.208 7.281 7.24 7.281zm23.738-18.225c6.047 0 10.491 4.65 10.491 10.903v1.357h-17.07c.576 3.415 3.414 5.966 6.95 5.966 2.43 0 4.485-.988 6.048-3.086l3.003 2.221c-2.098 2.798-5.225 4.484-9.051 4.484-6.294 0-11.149-4.69-11.149-10.942 0-5.925 4.65-10.903 10.78-10.903h-.002zm-6.5 8.97h12.795c-.699-3.21-3.29-5.35-6.376-5.35-3.085 0-5.677 2.14-6.418 5.35zM82.69 18.52c-2.715 0-4.69 2.098-4.69 5.348v11.93h-4.155V14.817h4.117v2.594c1.028-1.687 2.715-2.757 5.019-2.757h1.44v3.868l-1.73-.002z" fill="#000"/>
</svg>
